<svg width="155" height="38" viewBox="0 0 155 38" fill="none" xmlns="http://www.w3.org/2000/svg">
<path d="M7.21895 32.1881C3.15064 32.1881 0 30.0163 0 25.3668C0 22.9503 0.672951 19.9526 1.95768 16.8632L6.17893 18.2397C5.41421 20.4115 4.98597 22.2774 4.98597 23.6539C4.98597 27.2939 8.4425 27.5998 13.9791 24.6327C12.5108 23.3174 10.4614 22.2774 9.32958 21.635L10.8284 17.5973C13.3673 18.1173 16.5791 18.6679 19.5768 18.4232C19.2403 16.9855 18.7509 15.6396 18.445 14.6914L23.3392 13.5596C23.7063 14.7219 23.9204 16.129 23.9204 17.5361C23.9204 19.6467 23.4922 21.788 22.6357 23.1339C21.6263 23.4398 20.2192 23.7456 18.0474 24.0209C18.078 25.6116 17.925 27.1104 17.7415 27.8751C14.8661 30.2916 10.9202 32.1881 7.21895 32.1881ZM12.2049 35.0941C12.2967 35.7364 10.8896 37.5718 10.2778 38C9.57429 37.6941 8.10603 36.7459 7.49425 36.0729C7.06601 36.8376 6.30129 37.7247 5.90363 38C5.1695 37.6635 3.5483 36.5929 2.9977 35.9506C3.18123 35.2776 4.34361 33.2893 5.07774 33.167C5.65892 33.0752 7.52484 34.3599 7.80014 35.0023C8.25897 34.1764 8.93192 33.2587 9.45193 33.167C10.0637 33.0752 12.0826 34.5129 12.2049 35.0941ZM22.6663 30.3528C22.8192 31.0258 21.2898 33.0446 20.6168 33.4729C19.7909 33.167 18.0474 31.974 17.4968 31.2705C17.6497 30.5363 18.9039 28.4257 19.6992 28.3034C20.4027 28.1504 22.5439 29.7105 22.6663 30.3528Z" fill="white"/>
<path d="M33.9535 21.2985C33.9535 23.1339 33.77 24.1433 33.1276 24.1433C32.8829 24.1433 31.9347 24.0821 30.8641 23.8986C30.3746 25.2751 29.7629 26.6516 29.2123 27.8445C28.1723 30.0775 27.224 31.7599 27.0405 31.974C26.2758 31.6987 25.2663 31.1175 24.3487 30.4751C23.5534 29.9246 22.8498 29.3434 22.4216 28.854C23.6451 27.1716 24.6851 25.581 25.6334 23.9292C26.6122 22.1856 27.4381 20.3503 28.1417 18.1785L28.417 17.9949C30.4664 18.4538 33.0359 18.4538 33.1276 18.4538C33.8006 18.4538 33.9535 19.555 33.9535 21.2985Z" fill="white"/>
<path d="M45.3326 21.2985C45.3326 23.1338 45.149 24.1433 44.5066 24.1433C41.3254 24.1433 40.2854 23.0115 39.4289 22.1244C37.4712 23.4703 34.5653 24.1433 33.1276 24.1433C32.4853 24.1433 32.3017 23.1338 32.3017 21.2985C32.3017 19.555 32.4547 18.4538 33.1276 18.4538C34.1676 18.4538 35.7583 18.4538 37.2265 18.0867C36.5536 16.649 35.4524 16.282 34.3818 16.282C34.0759 15.8843 33.8006 14.0184 33.8618 12.9172C35.9112 12.0301 37.8995 11.6019 39.5819 11.6019C42.1207 11.6019 43.9255 12.6419 43.9255 14.8749C43.436 16.129 42.7937 17.2302 42.029 18.3008C42.916 18.4538 43.6196 18.4538 44.2314 18.4538H44.5066C45.1796 18.4538 45.3326 19.555 45.3326 21.2985Z" fill="white"/>
<path d="M52.3068 17.322C52.3068 19.4938 52.0621 21.5738 51.0527 23.3785C49.7068 23.8068 47.382 24.0821 44.5067 24.1433C43.8643 24.1433 43.6808 23.1338 43.6808 21.2985C43.6808 19.555 43.8337 18.4538 44.5067 18.4538C45.7303 18.4538 46.862 18.4232 47.9021 18.3314C47.7797 15.0584 47.3515 11.143 46.9538 7.10532L51.8786 6.83002C52.1233 10.9289 52.3068 14.2937 52.3068 17.322Z" fill="white"/>
<path d="M68.0906 17.689C68.0906 19.7997 67.6929 21.9103 66.8364 23.2562C63.5328 24.4186 57.9657 24.4492 55.0903 23.2562C54.7233 21.7879 54.6621 12.7031 54.448 7.10532L59.3728 6.83002C59.5869 10.3477 59.7398 14.8749 59.5869 18.3008C60.4434 18.4232 61.2081 18.4538 61.6058 18.4538C62.4011 18.4538 63.0434 18.3926 63.6858 18.209C63.3799 16.8937 62.9211 15.6702 62.6152 14.8137L67.54 13.6819C67.907 14.8443 68.0906 16.2514 68.0906 17.689ZM64.0834 28.3339C64.2364 29.0069 62.707 31.0257 62.034 31.454C61.2081 31.1481 59.4645 29.9551 58.9139 29.2516C59.0669 28.5175 60.321 26.4068 61.1163 26.2845C61.8199 26.1315 63.9611 27.6916 64.0834 28.3339Z" fill="white"/>
<path d="M112.271 6.21825C112.363 6.86062 110.956 8.69595 110.344 9.12419C109.64 8.8183 108.172 7.87005 107.56 7.1971C107.132 7.96182 106.367 8.84889 105.97 9.12419C105.236 8.78771 103.614 7.71711 103.064 7.07474C103.247 6.40179 104.41 4.41352 105.144 4.29116C105.725 4.1994 107.591 5.48413 107.866 6.12649C108.325 5.30059 108.998 4.38293 109.518 4.29116C110.13 4.1994 112.149 5.63707 112.271 6.21825Z" fill="white"/>
<path d="M110.14 2.05993C110.293 2.73288 108.763 4.75175 108.09 5.17999C107.265 4.87411 105.521 3.68114 104.97 2.97759C105.123 2.24346 106.377 0.132844 107.173 0.0104888C107.876 -0.142455 110.017 1.41757 110.14 2.05993Z" fill="white"/>
<path d="M77.3488 6.69745H82.8548V24.1331H77.3488V6.69745Z" fill="white"/>
<path d="M100.137 16.282C100.137 20.2279 99.1586 22.3079 98.4245 22.9197C97.5068 23.6538 94.968 24.1433 92.6432 24.1433C92.0926 24.1433 91.5114 24.1127 90.8996 24.0821V28.4257L85.669 28.6398V10.0622H89.9514L90.4714 12.234C91.4808 10.7658 93.1632 9.75635 95.335 9.75635C97.9657 9.75635 100.137 11.1125 100.137 16.282ZM94.7538 16.8326C94.7538 14.8137 94.4785 13.4678 92.6126 13.4678C92.1538 13.4678 91.5726 13.4984 90.8996 13.6513V20.442L91.7561 20.5338C92.8573 20.595 93.8668 20.595 94.1115 20.4114C94.6009 20.0444 94.7538 17.8726 94.7538 16.8326Z" fill="white"/>
<path d="M106.928 24.4797C105.429 24.4797 103.716 24.2656 101.789 23.8374C101.881 23.0115 102.248 21.115 102.462 20.3197C104.603 20.6561 107.754 20.8397 108.213 20.6255C108.274 20.595 108.702 19.6773 107.571 19.3408C105.582 18.7596 102.034 18.1173 102.034 14.1407C102.034 12.8866 102.737 10.9901 103.38 10.5618C103.839 10.256 106.102 9.79712 107.754 9.79712C109.712 9.79712 111.578 9.98065 112.862 10.1642C112.862 10.8677 112.587 13.1925 112.434 13.6513C109.345 13.2536 107.571 13.2536 107.173 13.4066C107.02 13.4678 106.806 14.1713 107.265 14.5384C108.182 15.2725 113.566 15.456 113.566 19.3714C113.566 23.1644 110.935 24.4797 106.928 24.4797Z" fill="white"/>
<path d="M129.38 10.0623V24.1331H125.128L124.547 21.7778C123.11 23.5213 121.397 24.439 119.286 24.439C117.91 24.439 116.441 24.0413 115.768 23.246C115.401 22.8178 115.218 21.2272 115.218 17.4647V10.0623H120.448V17.4036C120.448 18.0765 120.418 19.5448 120.663 19.8813C120.846 20.1565 121.703 20.2177 122.376 20.1566C122.957 20.126 123.599 19.973 124.15 19.7589V10.0623H129.38Z" fill="white"/>
<path d="M154.371 16.7408V24.1433H149.141V17.2609V15.6091C149.141 14.9667 149.08 14.4161 148.927 14.2632C148.743 14.0796 148.101 13.9879 147.519 14.049C146.938 14.0796 146.265 14.2326 145.715 14.4773C145.745 15.1196 145.745 15.8538 145.745 16.7408V24.1433H140.515V17.2609V15.4255C140.515 14.8749 140.453 14.4161 140.301 14.2632C140.117 14.0796 139.475 13.9879 138.893 14.049C138.312 14.0796 137.67 14.2326 137.119 14.4467V24.1433H131.889V10.0725H136.14L136.691 12.3666C138.129 10.4396 140.056 9.7666 141.677 9.7666C143.054 9.7666 144.705 10.1948 145.256 11.0513C145.378 11.2349 145.47 11.5408 145.562 12.0608C146.969 10.3784 148.774 9.7666 150.303 9.7666C151.68 9.7666 153.331 10.1948 153.882 11.0513C154.188 11.5 154.371 12.9784 154.371 16.7408Z" fill="white"/>
<path d="M124.435 5.35158C124.333 5.2802 124.211 5.22923 124.078 5.18844C123.242 6.24885 121.733 6.85043 120.958 7.12573C120.724 7.12573 119.582 7.03396 119.48 6.86062L119.449 6.78925C120.775 6.26925 122.284 5.68806 123.181 5.0151C121.988 4.80098 121.376 4.36254 121.376 3.49586C121.376 2.34368 122.467 1.44641 123.405 1.44641C123.976 1.44641 124.69 1.98681 124.69 3.56723C124.69 3.79155 124.659 3.99548 124.598 4.1994C124.812 4.22999 124.986 4.29117 125.139 4.39313L124.435 5.35158ZM123.946 4.09744C123.976 4.00567 123.987 3.91391 123.987 3.83234C123.976 3.15939 123.507 2.36407 122.936 2.36407C122.488 2.36407 122.07 2.69036 122.07 2.97585C122.08 3.48566 122.824 3.87312 123.946 4.09744Z" fill="white"/>
<path d="M11.379 13.6615C11.2261 13.6513 11.1139 13.6207 10.9916 13.6003C10.1861 14.7015 8.68721 15.4254 7.26993 15.4254C7.13738 15.4254 7.01502 15.4254 6.88247 15.4152L6.85188 15.3438C7.0864 14.7321 7.17816 14.2223 7.17816 13.8654C7.17816 13.4779 7.0762 13.2638 6.92326 13.2638C6.70914 13.2638 6.07697 13.4881 5.41421 13.8144L5.37342 13.7838L5.56716 12.6826C6.02599 12.4175 6.76012 12.081 7.03542 12.081C7.6166 12.081 7.80014 12.7336 7.80014 13.4371C7.80014 13.7634 7.76955 14.0897 7.70837 14.3752C8.34054 14.4058 9.51311 14.0183 10.2472 13.4371C8.69741 13.0803 8.32015 12.5603 8.32015 11.8669C8.32015 10.9391 9.2582 9.89905 10.288 9.89905C11.2465 9.89905 11.532 10.99 11.532 11.8669C11.532 12.1626 11.4912 12.4481 11.4096 12.7132C11.5728 12.7438 11.7665 12.754 11.9602 12.7744L11.379 13.6615ZM10.8386 12.6011C10.8692 12.4991 10.8998 12.3869 10.8998 12.2748C10.8998 11.4693 10.4104 10.8065 9.84959 10.8065C9.40095 10.8065 9.01349 11.1022 9.01349 11.3571C9.01349 11.612 9.23781 12.234 10.8386 12.6011Z" fill="white"/>
<path d="M92.8981 1.20167C91.7663 1.6605 91.1342 2.20091 91.1342 3.08798C91.1342 3.8629 91.7663 4.34212 92.5208 4.47467C92.6738 4.47467 92.8471 4.6684 92.8471 4.96409C92.8471 5.56567 92.2659 5.84097 91.8479 5.84097H91.8173C90.8487 5.84097 89.6557 4.99468 89.6557 3.55701C89.6557 1.946 91.1749 0.956967 92.6534 0.600098L92.8981 1.20167Z" fill="white"/>
<path d="M70.5581 28.2422C68.7228 28.9763 66.8569 29.6187 65.0419 30.1999L65.0113 30.1693L65.2356 29.1395C67.3259 28.4359 69.5079 27.7018 71.1189 27.0798L71.1495 27.1206L70.5581 28.2422Z" fill="white"/>
<path d="M82.5693 26.6821C80.734 27.4163 78.8681 28.0586 77.0531 28.6398L77.0226 28.6092L77.2469 27.5794C79.3371 26.8759 81.5191 26.1417 83.1301 25.5198L83.1607 25.5606L82.5693 26.6821Z" fill="white"/>
<path d="M39.4901 5.45357C37.6548 6.1877 35.7889 6.83006 33.9739 7.41125L33.9433 7.38066L34.1677 6.35084C36.2579 5.6473 38.4399 4.91317 40.0509 4.2912L40.0815 4.33198L39.4901 5.45357Z" fill="white"/>
</svg>
